<svg xmlns="http://www.w3.org/2000/svg" width="158.17" height="158.17" viewBox="0 0 158.17 158.17"><defs><style>.a,.c{fill:#fff;}.b{fill:none;stroke:#fff;stroke-miterlimit:10;}.c{font-size:14px;font-family:Lato-Light, Lato;font-weight:300;}</style></defs><path class="a" d="M71.37,49.81,79,76,82.5,87.6l3.12,10.52L86,99.45H64.67L57.94,74.6,43.42,96.43,28.52,75.68q-2.16,7.59-4.7,18.64a32.89,32.89,0,0,1-1.32,5,1.66,1.66,0,0,1-1.64.79c-1,0-1.54-.35-1.54-1.05a33.18,33.18,0,0,1,1-3.55L22.49,88l3.8-12.94,7.42-25.28L53,77.71Z"/><path class="a" d="M104.54,53.7l6.87,24,6.2,20.24a23.16,23.16,0,0,0,3-.62A21.84,21.84,0,0,0,127,94.1a22.33,22.33,0,0,0,5.18-5,24.05,24.05,0,0,0,2.51-4.55,26.29,26.29,0,0,0,1.68-5.15c.19-.94.53-1.48,1-1.63.75-.22,1.21,0,1.39.62s0,2-.65,3.91a30.14,30.14,0,0,1-2.38,5.42,24.5,24.5,0,0,1-8.44,8.76,25.69,25.69,0,0,1-6.46,3,24.9,24.9,0,0,1-10.07.78,24.42,24.42,0,0,1-14.6-6.72,25.35,25.35,0,0,1,10.25-42.84,24.86,24.86,0,0,1,18.73,1.61q4.31,2.15,4.71,3.52a.94.94,0,0,1-.14.78,1.14,1.14,0,0,1-.65.52c-.45.13-1.12-.15-2-.84a21.18,21.18,0,0,0-9.52-4.09,23.32,23.32,0,0,0-10.73.62A12,12,0,0,0,104.54,53.7Z"/><circle class="b" cx="79.09" cy="79.09" r="78.59"/><text class="c" transform="translate(51.51 132.26) rotate(17.14)">A</text><text class="c" transform="matrix(0.98, 0.18, -0.18, 0.98, 60.99, 135.1)">d</text><text class="c" transform="translate(69.2 136.56) rotate(4.6)">v</text><text class="c" transform="matrix(1, 0.02, -0.02, 1, 76.58, 137.07)">i</text><text class="c" transform="translate(80.1 137.15) rotate(-2.86)">s</text><text class="c" transform="translate(86.64 136.83) rotate(-8.28)">o</text><text class="c" transform="translate(94.87 135.55) rotate(-13.33)">r</text><text class="c" transform="translate(100.08 134.32) rotate(-17.63)">s</text><text class="c" transform="matrix(0.95, -0.32, 0.32, 0.95, 48.54, 34.88)">H</text><text class="c" transform="matrix(0.98, -0.22, 0.22, 0.98, 58.09, 31.65)">o</text><text class="c" transform="translate(65.52 30.03) rotate(-7.7)">s</text><text class="c" transform="matrix(1, -0.05, 0.05, 1, 71.22, 29.21)">p</text><text class="c" transform="translate(78.77 28.9) rotate(0.93)">i</text><text class="c" transform="matrix(1, 0.06, -0.06, 1, 81.77, 28.92)">t</text><text class="c" transform="translate(86.41 29.18) rotate(7.74)">a</text><text class="c" transform="translate(92.96 30.12) rotate(11.23)">l</text><text class="c" transform="translate(95.91 30.71) rotate(13.45)">i</text><text class="c" transform="translate(98.82 31.38) rotate(16.26)">t</text><text class="c" transform="matrix(0.94, 0.35, -0.35, 0.94, 103.27, 32.62)">y</text></svg>