<svg xmlns="http://www.w3.org/2000/svg" width="158.17" height="158.17" viewBox="0 0 158.17 158.17"><defs><style>.a,.c{fill:#fff;}.b{fill:none;stroke:#fff;stroke-miterlimit:10;}.c{font-size:14px;font-family:Lato-Light, Lato;font-weight:300;}</style></defs><path class="a" d="M71.37,49.81,79,76,82.5,87.6l3.12,10.52L86,99.45H64.67L57.94,74.6,43.42,96.43,28.52,75.68q-2.16,7.59-4.7,18.64a32.89,32.89,0,0,1-1.32,5,1.66,1.66,0,0,1-1.64.79c-1,0-1.54-.35-1.54-1.05a33.18,33.18,0,0,1,1-3.55L22.49,88l3.8-12.94,7.42-25.28L53,77.71Z"/><path class="a" d="M104.54,53.7l6.87,24,6.2,20.24a23.16,23.16,0,0,0,3-.62A21.84,21.84,0,0,0,127,94.1a22.33,22.33,0,0,0,5.18-5,24.05,24.05,0,0,0,2.51-4.55,26.29,26.29,0,0,0,1.68-5.15c.19-.94.53-1.48,1-1.63.75-.22,1.21,0,1.39.62s0,2-.65,3.91a30.14,30.14,0,0,1-2.38,5.42,24.5,24.5,0,0,1-8.44,8.76,25.69,25.69,0,0,1-6.46,3,24.9,24.9,0,0,1-10.07.78,24.42,24.42,0,0,1-14.6-6.72,25.35,25.35,0,0,1,10.25-42.84,24.86,24.86,0,0,1,18.73,1.61q4.31,2.15,4.71,3.52a.94.94,0,0,1-.14.78,1.14,1.14,0,0,1-.65.52c-.45.13-1.12-.15-2-.84a21.18,21.18,0,0,0-9.52-4.09,23.32,23.32,0,0,0-10.73.62A12,12,0,0,0,104.54,53.7Z"/><circle class="b" cx="79.09" cy="79.09" r="78.59"/><text class="c" transform="translate(49.03 131.29) rotate(19.09)">A</text><text class="c" transform="matrix(0.98, 0.2, -0.2, 0.98, 59.14, 134.64)">d</text><text class="c" transform="translate(68.08 136.41) rotate(5.41)">v</text><text class="c" transform="translate(76.23 137.06) rotate(0.93)">i</text><text class="c" transform="matrix(1, -0.05, 0.05, 1, 80.47, 137.14)">s</text><text class="c" transform="matrix(0.99, -0.16, 0.16, 0.99, 87.78, 136.72)">o</text><text class="c" transform="translate(96.75 135.14) rotate(-14.74)">r</text><text class="c" transform="translate(102.63 133.57) rotate(-19.58)">s</text><text class="c" transform="translate(45.44 36.27) rotate(-21.45)">H</text><text class="c" transform="matrix(0.97, -0.25, 0.25, 0.97, 55.49, 32.42)">o</text><text class="c" transform="matrix(0.99, -0.16, 0.16, 0.99, 63.51, 30.4)">s</text><text class="c" transform="matrix(1, -0.07, 0.07, 1, 69.88, 29.36)">p</text><text class="c" transform="translate(78.07 28.89) rotate(0.93)">i</text><text class="c" transform="matrix(1, 0.06, -0.06, 1, 81.77, 28.92)">t</text><text class="c" transform="translate(87.09 29.25) rotate(8.24)">a</text><text class="c" transform="translate(94.31 30.37) rotate(12.24)">l</text><text class="c" transform="matrix(0.97, 0.26, -0.26, 0.97, 97.9, 31.17)">i</text><text class="c" transform="matrix(0.95, 0.31, -0.31, 0.95, 101.44, 32.1)">t</text><text class="c" transform="translate(106.5 33.74) rotate(22.97)">y</text></svg>