<svg xmlns="http://www.w3.org/2000/svg" width="119.54" height="50.87" viewBox="0 0 119.54 50.87"><defs><style>.a{fill:#fff;}</style></defs><path class="a" d="M52.05.28,59.7,26.47l3.48,11.6,3.13,10.52.42,1.33H45.35L38.63,25.07,24.1,46.9,9.2,26.15Q7.06,33.74,4.5,44.79a31.64,31.64,0,0,1-1.32,5,1.66,1.66,0,0,1-1.64.79c-1,0-1.54-.35-1.54-1.05A32.47,32.47,0,0,1,1,46L3.17,38.5,7,25.56,14.4.28l19.24,27.9Z"/><path class="a" d="M85.23,4.17l6.86,24L98.3,48.37a23,23,0,0,0,3-.62,21.84,21.84,0,0,0,6.42-3.18,22.13,22.13,0,0,0,5.18-5A24.05,24.05,0,0,0,115.37,35a25.09,25.09,0,0,0,1.68-5.16c.19-.93.53-1.47,1-1.62.74-.22,1.2,0,1.39.62s0,2-.66,3.91a30.14,30.14,0,0,1-2.38,5.42A24.5,24.5,0,0,1,108,46.93a25.8,25.8,0,0,1-6.45,3,25.14,25.14,0,0,1-10.08.78A24.36,24.36,0,0,1,76.87,44,25.48,25.48,0,0,1,77.26,6.6a25,25,0,0,1,9.85-5.48,24.86,24.86,0,0,1,18.73,1.61q4.3,2.15,4.71,3.52a.94.94,0,0,1-.14.78,1.14,1.14,0,0,1-.65.52c-.45.13-1.11-.15-2-.84a21.18,21.18,0,0,0-9.52-4.09,23.33,23.33,0,0,0-10.73.62A11.69,11.69,0,0,0,85.23,4.17Z"/></svg>