<?xml version="1.0" encoding="utf-8"?>
<!-- Generator: Adobe Illustrator 26.0.0, SVG Export Plug-In . SVG Version: 6.00 Build 0)  -->
<svg version="1.1" id="Layer_1" xmlns="http://www.w3.org/2000/svg" xmlns:xlink="http://www.w3.org/1999/xlink" x="0px" y="0px"
	 viewBox="0 0 24 24" style="enable-background:new 0 0 24 24;" xml:space="preserve">
<style type="text/css">
	.st0{fill:none;}
	.st1{fill:#F2F2F2;}
</style>
<path class="st0" d="M0,0h24v24H0V0z"/>
<path class="st1" d="M9.4,10.7c0.9,1.6,2.3,3,4,4l0.9-1.2c0.3-0.4,0.8-0.5,1.3-0.3c1.4,0.8,3,1.2,4.6,1.4c0.5,0,0.9,0.5,0.9,1v4.5
	c0,0.5-0.4,0.9-0.9,1C19.6,21,19,21,18.5,21C9.9,21,3,14.1,3,5.5C3,5,3,4.4,3.1,3.9C3.1,3.4,3.6,3,4.1,3h4.5c0.5,0,1,0.4,1,0.9
	c0.1,1.6,0.6,3.2,1.4,4.6c0.2,0.4,0.1,1-0.3,1.3C10.6,9.8,9.4,10.7,9.4,10.7z M6.8,10l1.9-1.4C8.2,7.5,7.8,6.3,7.6,5H5
	c0,0.2,0,0.3,0,0.5C5,13,11,19,18.5,19c0.2,0,0.3,0,0.5,0v-2.6c-1.3-0.2-2.5-0.6-3.7-1.1L14,17.2c-0.5-0.2-1.1-0.5-1.6-0.8l-0.1,0
	c-2-1.1-3.6-2.7-4.7-4.7l0-0.1C7.3,11.1,7.1,10.6,6.8,10z"/>
</svg>
