<?xml version="1.0" standalone="no"?>
<!DOCTYPE svg PUBLIC "-//W3C//DTD SVG 20010904//EN"
 "http://www.w3.org/TR/2001/REC-SVG-20010904/DTD/svg10.dtd">
<svg version="1.0" xmlns="http://www.w3.org/2000/svg"
 width="1920.000000pt" height="1920.000000pt" viewBox="0 0 1920.000000 1920.000000"
 preserveAspectRatio="xMidYMid meet">
<metadata>
Created by potrace 1.14, written by Peter Selinger 2001-2017
</metadata>
<g transform="translate(0.000000,1920.000000) scale(0.100000,-0.100000)"
fill="#000000" stroke="none">
<path d="M14928 13675 c-2 -2 -40 -6 -84 -9 -45 -3 -96 -8 -115 -11 -19 -2
-52 -7 -74 -9 -57 -7 -113 -15 -170 -27 -27 -5 -63 -11 -80 -14 -16 -2 -50 -9
-75 -16 -25 -6 -54 -12 -66 -13 -11 -2 -25 -6 -31 -9 -5 -3 -20 -8 -34 -10
-96 -18 -427 -122 -559 -177 -37 -15 -71 -26 -74 -22 -3 3 -6 0 -6 -6 0 -7 -8
-12 -18 -12 -10 0 -22 -4 -27 -9 -6 -5 -27 -14 -47 -21 -21 -6 -38 -16 -38
-22 0 -6 -3 -8 -6 -5 -8 7 -245 -111 -256 -127 -4 -6 -8 -7 -8 -3 0 5 -12 -1
-26 -12 -15 -12 -33 -21 -40 -21 -8 0 -14 -3 -14 -8 0 -4 -12 -13 -27 -19 -25
-11 -243 -150 -268 -170 -5 -5 -28 -22 -50 -38 -22 -17 -44 -33 -50 -38 -5 -4
-35 -27 -67 -51 -31 -23 -63 -49 -71 -57 -9 -8 -32 -27 -52 -44 -139 -116
-360 -339 -475 -480 -30 -37 -65 -79 -78 -94 -13 -14 -30 -38 -40 -53 -9 -16
-20 -28 -25 -28 -4 0 -5 -4 -2 -10 3 -5 2 -10 -4 -10 -5 0 -20 -17 -32 -37
-13 -21 -26 -40 -30 -43 -11 -8 -189 -288 -202 -319 -6 -14 -14 -28 -17 -31
-13 -11 -50 -82 -50 -95 0 -7 -4 -15 -8 -17 -9 -3 -84 -156 -80 -161 2 -2 -2
-10 -8 -18 -7 -8 -34 -68 -61 -134 -59 -142 -65 -157 -69 -170 -2 -5 -17 -50
-34 -100 -18 -49 -33 -99 -35 -110 -2 -11 -8 -33 -15 -50 -6 -16 -13 -37 -15
-45 -2 -8 -15 -62 -30 -120 -15 -58 -29 -118 -31 -134 -2 -15 -6 -36 -9 -46
-8 -26 -14 -59 -20 -105 -2 -22 -7 -51 -9 -65 -3 -13 -8 -42 -11 -65 -4 -22
-9 -55 -11 -73 -36 -232 -35 -717 1 -987 3 -22 8 -60 11 -85 3 -25 8 -56 10
-70 3 -14 7 -38 10 -55 2 -16 11 -61 19 -100 8 -38 17 -81 19 -95 2 -14 16
-68 30 -120 15 -52 29 -105 31 -118 22 -96 170 -496 197 -529 6 -7 8 -13 4
-13 -6 0 144 -301 155 -310 3 -3 12 -20 20 -37 8 -18 17 -33 20 -33 4 0 9 -8
13 -17 15 -47 270 -424 305 -453 4 -3 25 -29 48 -58 101 -128 352 -389 488
-507 32 -27 63 -55 69 -60 6 -6 31 -26 56 -45 25 -19 47 -37 50 -40 11 -14
191 -141 285 -203 120 -78 293 -175 430 -242 112 -54 407 -174 445 -181 22 -4
80 -23 130 -42 8 -3 22 -7 30 -8 8 -1 45 -11 83 -23 37 -11 67 -17 67 -15 0 3
8 0 19 -5 10 -6 33 -13 52 -16 19 -3 52 -9 74 -14 82 -19 203 -40 265 -46 19
-2 55 -7 80 -10 25 -4 63 -8 85 -10 22 -2 40 -4 40 -5 0 -22 855 -17 968 6 12
2 42 7 67 10 25 3 56 7 70 10 14 2 39 6 55 9 79 14 147 28 225 47 47 11 92 21
101 22 8 1 28 7 45 13 62 23 229 74 238 73 5 -1 12 2 15 7 3 4 27 16 54 26 26
9 68 25 95 35 26 9 50 21 53 25 3 5 8 8 10 8 11 -4 84 29 221 98 167 85 192
98 294 161 38 24 78 48 89 54 63 36 393 270 415 295 3 4 34 31 70 61 162 137
320 296 471 475 19 22 37 42 42 43 4 2 7 8 7 13 0 6 11 21 25 35 14 14 25 28
25 32 0 4 10 18 23 32 12 14 42 54 67 90 24 36 48 67 52 68 4 2 8 9 8 17 0 7
6 18 13 24 8 6 24 31 37 56 13 25 27 45 32 45 4 0 8 4 8 9 0 8 49 96 99 181
13 21 135 264 136 270 1 3 14 32 29 65 51 107 188 468 211 555 2 8 11 40 20
70 71 242 88 427 46 508 -28 55 -77 86 -131 83 -8 -1 -23 -1 -33 -2 -51 -1
-147 -71 -147 -106 0 -7 -4 -13 -9 -13 -7 0 -21 -37 -26 -70 0 -3 -3 -9 -6
-15 -4 -5 -10 -26 -15 -45 -4 -19 -9 -39 -10 -45 -1 -5 -5 -28 -9 -50 -4 -22
-9 -43 -12 -47 -2 -5 -6 -16 -8 -25 -1 -10 -10 -45 -19 -78 -9 -33 -19 -69
-22 -80 -8 -29 -10 -38 -17 -55 -8 -22 -31 -93 -33 -105 -1 -9 -53 -150 -73
-200 -5 -11 -9 -23 -10 -28 0 -4 -12 -30 -26 -57 -14 -27 -25 -52 -24 -55 0
-3 -8 -25 -19 -48 -11 -23 -30 -64 -42 -92 -12 -27 -34 -76 -51 -107 -16 -32
-26 -58 -23 -58 3 0 -3 -12 -14 -27 -10 -16 -38 -64 -62 -108 -38 -71 -161
-274 -182 -300 -4 -5 -34 -44 -65 -85 -32 -41 -62 -80 -68 -86 -5 -6 -30 -35
-55 -63 -98 -114 -294 -306 -405 -395 -33 -27 -62 -52 -65 -56 -7 -9 -244
-178 -310 -222 -189 -123 -540 -307 -572 -300 -5 1 -8 -2 -8 -8 0 -5 -10 -10
-23 -10 -13 0 -28 -5 -35 -12 -6 -6 -17 -13 -24 -14 -7 -1 -50 -16 -95 -33
-46 -16 -83 -27 -83 -24 0 3 -6 1 -12 -4 -7 -6 -26 -14 -43 -18 -16 -5 -34 -9
-40 -11 -5 -2 -19 -5 -30 -7 -11 -3 -40 -10 -65 -17 -25 -7 -52 -13 -60 -15
-8 -1 -35 -6 -60 -11 -25 -5 -49 -9 -55 -10 -5 -1 -12 -3 -15 -4 -13 -5 -49
-10 -82 -12 -21 -2 -38 -5 -38 -8 0 -3 -11 -6 -24 -6 -29 -2 -37 16 -101 236
-7 25 -31 104 -53 175 -89 289 -114 371 -117 385 -2 8 -9 29 -15 45 -7 17 -16
44 -20 60 -4 17 -31 104 -59 195 -29 91 -54 176 -57 189 -3 14 -7 28 -10 33
-3 4 -7 16 -9 25 -2 10 -34 113 -70 228 -36 116 -67 219 -69 230 -2 11 -11 37
-19 58 -9 21 -16 39 -17 42 -1 7 -5 22 -35 120 -14 50 -28 97 -30 105 -2 8
-15 49 -28 90 -14 41 -32 102 -41 135 -9 33 -21 69 -25 80 -8 18 -57 178 -66
215 -2 8 -4 16 -5 18 -2 1 -4 7 -5 12 -1 6 -4 12 -5 15 -1 3 -3 8 -4 13 -12
44 -28 100 -33 112 -3 8 -7 20 -8 25 -2 6 -30 98 -63 205 -33 107 -72 236 -86
285 -96 333 -116 403 -119 420 -2 11 -7 27 -10 35 -6 14 -84 284 -92 320 -2 8
-43 150 -90 315 -48 165 -89 306 -90 315 -2 8 -13 45 -24 83 -11 37 -20 68
-20 70 0 1 -2 9 -5 17 -3 8 -33 112 -66 230 -33 118 -65 229 -70 245 -6 17
-13 39 -15 49 -7 30 -95 339 -102 356 -3 8 -7 24 -8 36 -1 11 -5 26 -9 32 -4
7 -9 20 -11 29 -2 10 -14 52 -25 93 -12 41 -23 83 -25 93 -2 9 -7 22 -10 27
-4 6 -8 23 -11 38 -3 15 -7 34 -11 42 -3 8 -7 20 -8 26 -4 16 -115 405 -121
424 -3 8 -5 16 -5 17 0 2 -5 17 -10 35 -6 18 -12 40 -14 48 -2 8 -26 94 -53
190 -28 96 -48 178 -45 182 3 7 60 35 83 43 3 1 30 13 60 27 88 40 357 123
460 142 14 2 36 7 50 10 14 3 36 8 50 10 14 3 34 7 45 9 11 3 38 8 60 11 40 7
55 9 150 21 28 3 64 8 80 10 84 11 229 18 395 18 154 -1 335 -7 335 -13 0 -1
20 -3 45 -5 64 -5 167 -19 230 -30 19 -4 46 -8 60 -10 28 -4 72 -12 110 -20
14 -3 39 -8 56 -10 17 -3 42 -9 55 -14 13 -5 27 -9 32 -10 4 0 8 -1 10 -2 2 0
27 -6 62 -13 6 -1 16 -5 23 -9 6 -5 12 -6 12 -3 0 3 16 -2 35 -10 19 -8 37
-14 40 -13 11 1 200 -64 213 -74 6 -5 12 -7 12 -4 0 12 326 -139 455 -211 114
-64 410 -262 440 -296 11 -11 43 -30 130 -74 100 -51 202 -24 252 66 30 53 25
128 -11 180 -44 65 -155 172 -176 172 -6 0 -10 4 -10 9 0 5 -17 20 -37 32 -21
13 -40 26 -43 29 -10 11 -141 90 -151 90 -5 0 -9 4 -9 8 0 4 -15 15 -32 23
-18 9 -55 29 -83 44 -69 38 -362 185 -369 185 -3 0 -29 11 -58 24 -71 32 -224
92 -273 107 -22 6 -49 15 -60 20 -25 10 -183 58 -210 63 -11 3 -57 14 -102 25
-45 12 -117 28 -160 36 -43 8 -89 17 -102 20 -13 2 -49 7 -80 11 -31 3 -58 8
-61 9 -3 2 -37 7 -75 10 -39 4 -86 9 -105 12 -42 5 -596 13 -602 8z"/>
<path d="M2307 13614 c-35 -116 -177 -603 -184 -629 -3 -11 -6 -24 -8 -30 -1
-5 -3 -12 -3 -15 -1 -3 -10 -31 -21 -62 -11 -32 -18 -58 -16 -58 2 0 -3 -16
-11 -35 -8 -19 -14 -36 -13 -37 1 -2 -9 -37 -21 -78 -12 -41 -24 -82 -25 -90
-2 -8 -4 -16 -5 -17 -2 -2 -3 -6 -4 -10 -3 -12 -35 -121 -57 -196 -12 -37 -22
-73 -23 -80 -2 -7 -6 -19 -9 -27 -3 -8 -12 -40 -21 -70 -9 -30 -39 -133 -67
-229 -28 -96 -52 -182 -54 -190 -2 -9 -9 -32 -15 -51 -13 -41 -93 -315 -122
-415 -10 -38 -22 -77 -25 -85 -3 -8 -7 -19 -8 -25 -11 -47 -27 -104 -34 -120
-9 -20 -32 -99 -37 -122 -1 -7 -11 -43 -23 -80 -24 -82 -55 -186 -56 -193 0
-3 -11 -37 -23 -76 -12 -39 -23 -80 -25 -90 -2 -10 -7 -28 -11 -39 -17 -45
-25 -72 -32 -105 -3 -19 -9 -39 -12 -45 -4 -5 -8 -16 -9 -22 -2 -7 -4 -19 -6
-25 -1 -7 -6 -19 -10 -25 -5 -7 -6 -13 -3 -13 3 0 -4 -26 -15 -57 -11 -32 -19
-59 -19 -61 1 -1 -8 -33 -19 -70 -43 -145 -65 -217 -67 -228 -1 -6 -13 -48
-27 -95 -14 -46 -35 -118 -47 -159 -12 -41 -29 -96 -37 -121 -8 -25 -16 -55
-18 -65 -2 -10 -4 -20 -5 -21 -2 -2 -4 -7 -5 -13 -1 -5 -3 -11 -5 -12 -1 -2
-3 -10 -5 -18 -1 -8 -19 -69 -39 -134 -20 -66 -38 -129 -40 -140 -2 -12 -11
-38 -19 -59 -9 -20 -13 -37 -10 -37 3 0 0 -7 -7 -15 -7 -8 -10 -15 -6 -15 3 0
1 -11 -4 -25 -5 -14 -12 -36 -14 -48 -2 -12 -12 -44 -21 -71 -9 -26 -18 -56
-20 -65 -2 -9 -20 -70 -40 -136 -66 -221 -97 -324 -99 -337 -2 -14 -24 -83
-33 -108 -3 -8 -7 -19 -8 -25 -4 -16 -59 -205 -115 -390 -28 -93 -58 -195 -66
-225 -8 -30 -22 -80 -31 -110 -9 -30 -18 -61 -20 -67 -6 -24 -10 -38 -16 -53
-6 -16 -57 -193 -62 -213 -1 -7 -4 -19 -7 -27 -7 -17 -30 -100 -34 -115 -1 -5
-16 -59 -34 -120 -17 -60 -33 -117 -35 -125 -2 -8 -16 -53 -30 -100 -15 -47
-28 -94 -31 -106 -2 -11 -13 -49 -24 -84 -11 -34 -20 -66 -20 -71 0 -4 -4 -18
-9 -31 -5 -13 -10 -27 -11 -33 -2 -5 -9 -25 -17 -42 -7 -18 -10 -33 -7 -33 4
0 1 -7 -6 -15 -6 -8 -9 -19 -5 -25 3 -5 1 -10 -6 -10 -7 0 -10 -3 -6 -6 3 -4
0 -23 -8 -43 -12 -31 -41 -134 -50 -181 -2 -8 -10 -43 -19 -78 -18 -68 -15
-119 9 -155 35 -54 146 -87 269 -81 102 5 200 73 226 157 8 23 18 48 23 55 5
6 7 12 4 12 -3 0 10 46 29 103 19 56 37 116 39 132 3 17 10 41 15 55 5 14 11
34 13 45 1 11 6 26 10 33 5 6 6 12 3 12 -2 0 0 15 5 33 5 17 11 43 14 57 3 14
7 34 9 45 3 11 16 74 30 140 13 66 36 168 50 228 14 59 28 118 30 130 2 12 9
40 15 62 6 22 12 51 15 65 2 14 5 25 7 25 1 0 3 9 5 20 2 11 10 49 19 85 9 36
20 85 25 109 6 23 15 62 21 85 7 22 13 50 15 61 2 11 13 56 24 100 11 44 22
89 24 100 3 11 5 20 6 20 1 0 3 9 5 20 2 11 9 40 15 65 6 25 13 52 15 60 2 8
26 107 54 219 29 112 53 214 56 225 2 12 4 21 5 21 1 0 3 7 5 15 1 8 11 44 20
80 9 36 18 72 20 80 2 8 8 35 15 60 7 25 14 52 15 60 2 8 4 15 5 15 1 0 4 11
7 25 6 31 7 35 22 90 7 25 15 52 17 60 2 8 10 42 19 75 8 33 17 67 19 75 32
125 68 258 73 270 3 8 7 22 9 30 2 15 22 87 79 298 16 56 32 102 36 102 5 0
14 -10 20 -22 6 -12 20 -31 30 -42 11 -11 19 -25 19 -32 0 -7 4 -14 8 -16 5
-1 33 -37 62 -78 30 -41 57 -77 60 -80 3 -3 10 -12 15 -22 6 -9 60 -85 120
-168 129 -178 170 -236 193 -270 9 -14 19 -27 22 -30 3 -3 23 -30 44 -60 22
-30 43 -56 48 -58 4 -2 8 -8 8 -14 0 -6 16 -32 35 -57 34 -46 193 -266 237
-329 13 -18 29 -39 36 -47 6 -7 12 -18 12 -24 0 -6 3 -11 8 -11 4 0 18 -17 32
-38 14 -20 57 -82 97 -137 40 -55 82 -115 95 -133 13 -18 28 -39 33 -45 6 -7
26 -35 45 -62 19 -28 40 -56 47 -63 7 -7 13 -17 13 -22 0 -5 6 -15 13 -22 25
-26 177 -239 177 -247 0 -5 3 -11 8 -13 9 -4 72 -85 72 -93 0 -3 13 -23 28
-43 16 -20 50 -66 76 -102 26 -36 54 -73 62 -83 8 -9 14 -21 14 -26 0 -5 4
-11 8 -13 4 -1 28 -32 53 -68 91 -130 204 -285 212 -288 4 -2 7 -8 7 -14 0 -5
6 -16 13 -23 6 -8 22 -29 35 -47 58 -84 118 -163 124 -166 5 -2 8 -8 8 -13 0
-7 47 -75 80 -116 6 -7 21 -28 35 -48 l24 -36 32 43 c17 24 36 53 42 66 5 12
14 22 19 22 4 0 8 4 8 9 0 5 27 49 60 98 69 102 60 89 145 218 36 55 72 109
80 120 52 73 463 696 468 709 4 9 11 16 17 16 5 0 10 4 10 9 0 6 47 80 105
167 58 86 105 160 105 164 0 5 3 10 8 12 6 2 138 196 177 259 9 14 75 114 105
159 6 8 42 62 80 120 39 58 75 112 80 120 89 130 420 630 434 653 10 18 21 34
25 37 6 5 12 14 59 89 15 24 36 56 47 70 11 14 27 38 34 54 8 15 18 27 23 27
4 0 8 6 8 13 0 6 10 24 23 39 12 15 48 68 80 118 33 50 60 90 62 88 2 -2 7
-19 10 -37 3 -19 10 -42 16 -52 5 -11 7 -19 4 -19 -3 0 -1 -8 4 -18 6 -11 12
-30 15 -43 4 -25 29 -117 66 -249 19 -68 29 -108 34 -135 1 -5 4 -14 7 -20 6
-9 17 -60 20 -90 1 -5 7 -26 15 -45 7 -19 18 -55 24 -80 6 -25 12 -52 15 -60
2 -8 20 -73 39 -145 20 -71 48 -175 62 -230 14 -55 28 -107 31 -115 3 -8 7
-22 9 -30 1 -8 14 -58 29 -110 14 -52 28 -102 30 -110 2 -8 8 -27 14 -42 6
-16 9 -28 6 -28 -2 0 2 -18 10 -40 8 -22 14 -42 15 -45 0 -3 0 -6 1 -7 0 -2 2
-10 4 -18 2 -8 15 -58 29 -110 15 -52 28 -102 30 -110 2 -8 16 -60 31 -115 15
-55 33 -125 41 -155 8 -30 17 -62 19 -70 8 -27 66 -242 95 -350 53 -196 71
-265 75 -280 12 -44 67 -248 90 -330 15 -52 31 -113 36 -135 6 -22 22 -80 36
-130 13 -49 27 -97 29 -105 2 -8 11 -42 19 -75 9 -33 17 -64 18 -70 2 -5 6
-16 10 -22 5 -7 6 -13 3 -13 -3 0 -1 -11 4 -26 6 -14 12 -39 15 -56 3 -17 10
-38 15 -48 9 -16 113 -17 1723 -17 l1715 0 -8 26 c-5 14 -18 58 -31 96 -12 39
-23 72 -24 75 0 3 -4 11 -8 18 -5 6 -6 12 -3 12 3 0 -2 19 -10 43 -9 23 -18
53 -20 67 -3 14 -9 36 -14 50 -5 14 -21 66 -35 115 -15 50 -33 110 -41 135 -8
25 -14 48 -15 52 0 4 -7 27 -14 50 -17 55 -107 356 -141 473 -15 50 -35 117
-45 150 -71 231 -92 302 -94 315 -1 8 -18 67 -37 130 -20 63 -48 156 -63 205
-15 50 -31 106 -37 125 -11 37 -16 55 -19 68 -1 4 -6 18 -11 32 -5 14 -11 34
-14 44 -4 21 -22 82 -31 106 -3 8 -7 20 -9 25 -19 77 -30 111 -37 116 -4 3 -7
10 -6 15 1 5 0 12 -1 17 -1 4 -3 10 -4 15 -5 20 -38 129 -43 142 -3 8 -8 24
-10 35 -3 18 -8 33 -28 90 -4 11 -9 27 -11 35 -6 34 -10 46 -17 58 -5 6 -5 12
-1 12 3 0 1 7 -6 15 -7 8 -9 15 -5 15 4 0 2 7 -5 15 -7 8 -10 15 -6 15 3 0 1
12 -5 28 -6 15 -12 35 -14 45 -2 10 -15 55 -30 100 -14 45 -25 84 -24 87 0 3
-5 19 -11 35 -7 17 -30 91 -52 165 -22 74 -48 162 -58 195 -10 33 -43 148 -75
255 -53 185 -71 246 -83 280 -3 8 -7 24 -9 34 -2 11 -10 40 -19 65 -9 25 -17
53 -19 62 -2 9 -13 49 -25 90 -12 41 -23 79 -25 84 -1 6 -4 17 -7 25 -3 8 -11
35 -18 60 -19 69 -32 113 -38 130 -3 8 -6 20 -7 25 -2 6 -15 51 -30 100 -15
50 -30 104 -35 120 -14 55 -42 149 -62 210 -11 33 -22 71 -24 85 -3 14 -19 70
-36 125 -28 94 -54 181 -63 215 -4 17 -82 279 -95 323 -5 15 -9 29 -10 32 -1
6 -4 16 -29 100 -12 39 -21 78 -21 87 0 9 -5 20 -10 23 -6 4 -10 12 -9 18 1 7
-1 19 -4 27 -3 8 -15 49 -27 90 -12 41 -30 107 -42 145 -11 39 -21 77 -24 85
-2 8 -15 53 -29 100 -15 47 -28 92 -30 100 -2 8 -11 39 -20 68 -8 28 -22 76
-30 105 -17 58 -17 55 -43 147 -10 36 -21 72 -24 80 -6 15 -149 507 -153 525
-1 6 -10 37 -20 70 -11 33 -19 62 -20 65 -2 9 -36 124 -41 140 -3 9 -16 -2
-37 -35 -17 -28 -37 -56 -44 -63 -6 -6 -15 -21 -18 -32 -3 -11 -11 -20 -16
-20 -5 0 -9 -7 -9 -15 0 -8 -3 -15 -8 -15 -4 0 -13 -13 -20 -28 -6 -16 -21
-38 -32 -50 -11 -12 -20 -23 -20 -26 0 -3 -28 -47 -62 -98 -35 -51 -65 -97
-68 -103 -3 -5 -59 -91 -124 -190 -66 -99 -182 -274 -258 -390 -76 -115 -145
-219 -153 -230 -24 -35 -85 -127 -85 -129 0 -3 -349 -532 -359 -543 -6 -7 -11
-14 -11 -16 0 -3 -38 -61 -85 -131 -47 -69 -85 -130 -85 -136 0 -6 -7 -13 -15
-16 -8 -4 -15 -10 -15 -15 0 -5 -33 -58 -72 -117 -76 -111 -89 -132 -109 -169
-7 -13 -16 -23 -21 -23 -4 0 -8 -7 -8 -15 0 -8 -4 -15 -10 -15 -5 0 -10 -4
-10 -9 0 -6 -50 -86 -112 -178 -61 -92 -155 -235 -210 -318 -54 -82 -102 -155
-106 -160 -9 -13 -106 -160 -168 -255 -27 -41 -52 -76 -56 -78 -5 -2 -8 -8 -8
-12 0 -5 -29 -52 -65 -105 -36 -53 -65 -99 -65 -102 0 -2 -6 -10 -12 -18 -7
-7 -100 -146 -207 -308 -133 -203 -198 -294 -207 -290 -8 3 -14 9 -14 13 0 12
-70 114 -81 118 -5 2 -9 8 -9 12 0 5 -13 29 -30 52 -16 24 -67 97 -112 163
-45 66 -85 122 -90 123 -4 2 -8 9 -8 15 0 7 -11 25 -25 41 -14 16 -25 33 -25
37 0 4 -6 14 -13 21 -7 7 -53 72 -102 143 -49 72 -103 150 -120 175 -17 25
-61 88 -97 140 -126 184 -148 215 -156 225 -4 6 -28 40 -52 78 -24 37 -49 67
-54 67 -5 0 -7 3 -3 6 3 4 1 12 -6 19 -7 7 -18 21 -24 31 -60 92 -108 160
-117 166 -7 5 -7 8 -1 8 6 0 2 5 -7 11 -10 5 -18 14 -18 20 0 9 -38 68 -51 79
-3 3 -30 41 -59 85 -29 44 -56 82 -60 85 -3 3 -17 23 -30 45 -21 34 -42 65
-98 140 -8 12 -100 147 -122 180 -29 44 -179 260 -187 270 -5 6 -42 60 -83
120 -40 61 -77 112 -82 113 -4 2 -8 8 -8 14 0 6 -13 27 -30 48 -16 21 -30 42
-30 48 0 6 -4 12 -8 14 -4 2 -48 62 -97 133 -148 217 -199 290 -207 293 -5 2
-8 9 -8 14 0 6 -18 35 -40 64 -22 29 -40 57 -40 63 0 5 -4 11 -8 13 -4 2 -37
46 -72 98 -36 52 -70 101 -77 108 -7 7 -13 17 -13 21 0 4 -8 17 -17 29 -10 11
-47 64 -83 117 -36 54 -70 102 -75 109 -6 6 -22 29 -35 51 -14 22 -30 47 -37
55 -7 8 -62 87 -122 175 -151 221 -136 203 -144 179z"/>
</g>
</svg>
