<?xml version="1.0" encoding="utf-8"?>
<!-- Generator: Adobe Illustrator 26.0.0, SVG Export Plug-In . SVG Version: 6.00 Build 0)  -->
<svg version="1.1" id="Layer_1" xmlns="http://www.w3.org/2000/svg" xmlns:xlink="http://www.w3.org/1999/xlink" x="0px" y="0px"
	 viewBox="0 0 24 24" style="enable-background:new 0 0 24 24;" xml:space="preserve">
<style type="text/css">
	.st0{fill:none;}
	.st1{fill:#FFFFFF;}
</style>
<path class="st0" d="M0,0h24v24H0V0z"/>
<path class="st1" d="M13,9h4.5L17,11h-4v9h-2v-9H7V9h4V7.1c0-1.8,0.2-2.4,0.5-3.1c0.3-0.6,0.9-1.2,1.5-1.5C13.7,2.2,14.3,2,16.1,2
	c0.5,0,1,0.1,1.4,0.2V4h-1.4c-1.3,0-1.7,0.1-2.1,0.3c-0.3,0.2-0.5,0.4-0.7,0.7C13.1,5.4,13,5.8,13,7.1C13,7.1,13,9,13,9z"/>
</svg>
