<?xml version="1.0" encoding="utf-8"?>
<!-- Generator: Adobe Illustrator 26.0.0, SVG Export Plug-In . SVG Version: 6.00 Build 0)  -->
<svg version="1.1" id="Layer_1" xmlns="http://www.w3.org/2000/svg" xmlns:xlink="http://www.w3.org/1999/xlink" x="0px" y="0px"
	 viewBox="0 0 24 24" style="enable-background:new 0 0 24 24;" xml:space="preserve">
<style type="text/css">
	.st0{fill:none;}
	.st1{fill:#FFFFFF;}
</style>
<path class="st0" d="M0,0h24v24H0V0z"/>
<path class="st1" d="M12,9c-1.7,0-3,1.3-3,3s1.3,3,3,3s3-1.3,3-3S13.7,9,12,9z M12,7c2.8,0,5,2.2,5,5s-2.2,5-5,5s-5-2.2-5-5
	S9.2,7,12,7z M18.5,6.7c0,0.7-0.6,1.2-1.2,1.2S16,7.4,16,6.7s0.6-1.2,1.2-1.2S18.5,6.1,18.5,6.7z M12,4C9.5,4,9.1,4,8,4.1
	c-0.8,0-1.3,0.1-1.8,0.3C5.7,4.6,5.4,4.8,5.1,5.1C4.8,5.4,4.5,5.8,4.4,6.2C4.2,6.7,4.1,7.2,4.1,8C4,9.1,4,9.5,4,12
	c0,2.5,0,2.9,0.1,4c0,0.8,0.1,1.3,0.3,1.8c0.2,0.4,0.4,0.7,0.7,1.1c0.3,0.3,0.7,0.5,1.1,0.7c0.5,0.2,1,0.3,1.8,0.3
	C9.1,20,9.5,20,12,20c2.5,0,2.9,0,4-0.1c0.8,0,1.3-0.1,1.8-0.3c0.4-0.2,0.7-0.4,1.1-0.7c0.3-0.3,0.5-0.6,0.7-1.1
	c0.2-0.5,0.3-1,0.3-1.8c0.1-1.1,0.1-1.5,0.1-4c0-2.5,0-2.9-0.1-4c0-0.8-0.1-1.3-0.3-1.8c-0.2-0.4-0.4-0.8-0.7-1.1
	c-0.3-0.3-0.7-0.6-1.1-0.7c-0.5-0.2-1-0.3-1.8-0.3C14.9,4,14.5,4,12,4z M12,2c2.7,0,3.1,0,4.1,0.1c1.1,0,1.8,0.2,2.4,0.5
	c0.7,0.3,1.2,0.6,1.8,1.2c0.5,0.5,0.9,1.1,1.2,1.8c0.2,0.6,0.4,1.4,0.5,2.4C22,8.9,22,9.3,22,12s0,3.1-0.1,4.1
	c0,1.1-0.2,1.8-0.5,2.4c-0.3,0.7-0.6,1.3-1.2,1.8c-0.5,0.5-1.1,0.9-1.8,1.2c-0.6,0.2-1.4,0.4-2.4,0.5C15.1,22,14.7,22,12,22
	s-3.1,0-4.1-0.1c-1.1,0-1.8-0.2-2.4-0.5c-0.7-0.3-1.3-0.6-1.8-1.2c-0.5-0.5-0.9-1.1-1.2-1.8c-0.2-0.6-0.4-1.4-0.5-2.4
	C2,15.1,2,14.7,2,12s0-3.1,0.1-4.1s0.2-1.8,0.5-2.4c0.3-0.7,0.6-1.3,1.2-1.8c0.5-0.5,1.1-0.9,1.8-1.2c0.6-0.2,1.4-0.4,2.4-0.5
	C8.9,2,9.3,2,12,2z"/>
</svg>
