<?xml version="1.0" encoding="utf-8"?>
<!-- Generator: Adobe Illustrator 26.0.0, SVG Export Plug-In . SVG Version: 6.00 Build 0)  -->
<svg version="1.1" id="Layer_1" xmlns="http://www.w3.org/2000/svg" xmlns:xlink="http://www.w3.org/1999/xlink" x="0px" y="0px"
	 viewBox="0 0 24 24" style="enable-background:new 0 0 24 24;" xml:space="preserve">
<style type="text/css">
	.st0{fill:none;}
	.st1{fill:#FFFFFF;}
</style>
<path class="st0" d="M0,0h24v24H0V0z"/>
<path class="st1" d="M12,9.5C12.9,8.6,14.1,8,15.5,8c3,0,5.5,2.5,5.5,5.5V21h-2v-7.5c0-1.9-1.6-3.5-3.5-3.5S12,11.6,12,13.5V21h-2
	V8.5h2V9.5z M5,6.5C4.2,6.5,3.5,5.8,3.5,5S4.2,3.5,5,3.5S6.5,4.2,6.5,5S5.8,6.5,5,6.5z M4,8.5h2V21H4V8.5z"/>
</svg>
